# File units = meters
mtllib Switch.mtl
g Part 1
usemtl 0.729412_0.250980_0.105882_0.000000_0.000000
o mesh0
v 0.002 -0.002 0.0603434 
v 0.002 0.002 0.0603434 
v 0.0176566 0.002 0.076 
v 0.0176566 -0.002 0.076 
vn 0.707107 0 -0.707107 
vn 0.707107 0 -0.707107 
vn 0.707107 0 -0.707107 
vn 0.707107 0 -0.707107 
f 1//1 2//2 3//3 
f 3//3 4//4 1//1 
o mesh1
v 0.002 -0.002 0.016 
v 0.002 0.002 0.016 
v 0.002 0.002 0.0603434 
v 0.002 -0.002 0.0603434 
vn 1 0 0 
vn 1 0 0 
vn 1 0 0 
vn 1 0 0 
f 5//5 6//6 7//7 
f 7//7 8//8 5//5 
o mesh2
v 0.032 -0.002 0.08 
v 0.016 -0.002 0.08 
v 0.0176566 -0.002 0.076 
v -0.002 -0.002 0.062 
v 0.002 -0.002 0.0603434 
v -0.002 -0.002 0.016 
v 0.002 -0.002 0.016 
v 0.032 -0.002 0.076 
vn 0 -1 0 
vn 0 -1 0 
vn 0 -1 0 
vn 0 -1 0 
vn 0 -1 0 
vn 0 -1 0 
vn 0 -1 0 
vn 0 -1 0 
f 9//9 10//10 11//11 
f 10//10 12//12 13//13 
f 13//13 11//11 10//10 
f 14//14 15//15 13//13 
f 13//13 12//12 14//14 
f 11//11 16//16 9//9 
o mesh3
v -0.002 0.002 0.016 
v -0.002 -0.002 0.016 
v -0.002 -0.002 0.062 
v -0.002 0.002 0.062 
vn -1 0 0 
vn -1 0 0 
vn -1 0 0 
vn -1 0 0 
f 17//17 18//18 19//19 
f 19//19 20//20 17//17 
o mesh4
v 0.016 -0.002 0.08 
v 0.016 0.002 0.08 
v -0.002 0.002 0.062 
v -0.002 -0.002 0.062 
vn -0.707107 0 0.707107 
vn -0.707107 0 0.707107 
vn -0.707107 0 0.707107 
vn -0.707107 0 0.707107 
f 21//21 22//22 23//23 
f 23//23 24//24 21//21 
o mesh5
v 0.016 0.002 0.08 
v 0.0176566 0.002 0.076 
v 0.002 0.002 0.0603434 
v 0.032 0.002 0.08 
v 0.032 0.002 0.076 
v -0.002 0.002 0.016 
v -0.002 0.002 0.062 
v 0.002 0.002 0.016 
vn 0 1 0 
vn 0 1 0 
vn 0 1 0 
vn 0 1 0 
vn 0 1 0 
vn 0 1 0 
vn 0 1 0 
vn 0 1 0 
f 25//25 26//26 27//27 
f 28//28 29//29 26//26 
f 30//30 31//31 27//27 
f 26//26 25//25 28//28 
f 27//27 31//31 25//25 
f 27//27 32//32 30//30 
o mesh6
v 0.032 -0.006 0.076 
v 0.032 -0.006 0.08 
v 0.032 -0.002 0.08 
v 0.032 -0.002 0.076 
vn -1 0 0 
vn -1 0 0 
vn -1 0 0 
vn -1 0 0 
f 33//33 34//34 35//35 
f 35//35 36//36 33//33 
o mesh7
v 0.016 -0.002 0.08 
v 0.032 -0.002 0.08 
v 0.032 0.002 0.08 
v 0.046 4.33681e-18 0.08 
v 0.032 0.006 0.08 
v 0.016 0.002 0.08 
v 0.032 -0.006 0.08 
vn 0 0 1 
vn 0 0 1 
vn 0 0 1 
vn 0 0 1 
vn 0 0 1 
vn 0 0 1 
vn 0 0 1 
f 37//37 38//38 39//39 
f 38//38 40//40 39//39 
f 40//40 41//41 39//39 
f 39//39 42//42 37//37 
f 38//38 43//43 40//40 
o mesh8
v 0.0176566 0.002 0.076 
v 0.032 0.002 0.076 
v 0.032 -0.002 0.076 
v 0.0176566 -0.002 0.076 
v 0.046 4.33681e-18 0.076 
v 0.032 -0.006 0.076 
v 0.032 0.006 0.076 
vn 0 0 -1 
vn 0 0 -1 
vn 0 0 -1 
vn 0 0 -1 
vn 0 0 -1 
vn 0 0 -1 
vn 0 0 -1 
f 44//44 45//45 46//46 
f 46//46 47//47 44//44 
f 48//48 49//49 46//46 
f 45//45 48//48 46//46 
f 45//45 50//50 48//48 
o mesh9
v 0.046 4.33681e-18 0.076 
v 0.046 4.33681e-18 0.08 
v 0.032 -0.006 0.08 
v 0.032 -0.006 0.076 
vn 0.393919 -0.919145 0 
vn 0.393919 -0.919145 0 
vn 0.393919 -0.919145 0 
vn 0.393919 -0.919145 0 
f 51//51 52//52 53//53 
f 53//53 54//54 51//51 
o mesh10
v 0.032 0.006 0.076 
v 0.032 0.006 0.08 
v 0.046 4.33681e-18 0.08 
v 0.046 4.33681e-18 0.076 
vn 0.393919 0.919145 0 
vn 0.393919 0.919145 0 
vn 0.393919 0.919145 0 
vn 0.393919 0.919145 0 
f 55//55 56//56 57//57 
f 57//57 58//58 55//55 
o mesh11
v 0.032 0.002 0.076 
v 0.032 0.002 0.08 
v 0.032 0.006 0.08 
v 0.032 0.006 0.076 
vn -1 0 0 
vn -1 0 0 
vn -1 0 0 
vn -1 0 0 
f 59//59 60//60 61//61 
f 61//61 62//62 59//59 
usemtl 0.529412_0.568627_0.600000_0.000000_0.000000
o mesh12
v 0.008 0.008 0.016 
v -0.008 0.008 0.016 
v -0.002 0.002 0.016 
v -0.008 -0.008 0.016 
v -0.002 -0.002 0.016 
v 0.008 -0.008 0.016 
v 0.002 -0.002 0.016 
v 0.002 0.002 0.016 
vn 0 0 1 
vn 0 0 1 
vn 0 0 1 
vn 0 0 1 
vn 0 0 1 
vn 0 0 1 
vn 0 0 1 
vn 0 0 1 
f 63//63 64//64 65//65 
f 64//64 66//66 67//67 
f 67//67 65//65 64//64 
f 66//66 68//68 69//69 
f 69//69 67//67 66//66 
f 68//68 63//63 70//70 
f 70//70 69//69 68//68 
f 65//65 70//70 63//63 
usemtl 0.349020_0.376471_0.400000_0.000000_0.000000
o mesh13
v 0.016 -0.016 0.008 
v 0.016 0.016 0.008 
v 0.008 0.008 0.016 
v 0.008 -0.008 0.016 
vn 0.707107 0 0.707107 
vn 0.707107 0 0.707107 
vn 0.707107 0 0.707107 
vn 0.707107 0 0.707107 
f 71//71 72//72 73//73 
f 73//73 74//74 71//71 
o mesh14
v 0.016 0.016 0.008 
v -0.016 0.016 0.008 
v -0.008 0.008 0.016 
v 0.008 0.008 0.016 
vn 0 0.707107 0.707107 
vn 0 0.707107 0.707107 
vn 0 0.707107 0.707107 
vn 0 0.707107 0.707107 
f 75//75 76//76 77//77 
f 77//77 78//78 75//75 
o mesh15
v -0.016 -0.016 0.008 
v 0.016 -0.016 0.008 
v 0.008 -0.008 0.016 
v -0.008 -0.008 0.016 
vn 0 -0.707107 0.707107 
vn 0 -0.707107 0.707107 
vn 0 -0.707107 0.707107 
vn 0 -0.707107 0.707107 
f 79//79 80//80 81//81 
f 81//81 82//82 79//79 
usemtl 0.529412_0.568627_0.600000_0.000000_0.000000
o mesh16
v 0.016 -0.016 0 
v 0.016 0.016 0 
v 0.016 0.016 0.008 
v 0.016 -0.016 0.008 
vn 1 0 0 
vn 1 0 0 
vn 1 0 0 
vn 1 0 0 
f 83//83 84//84 85//85 
f 85//85 86//86 83//83 
o mesh17
v 0.016 0.016 0 
v -0.016 0.016 0 
v -0.016 0.016 0.008 
v 0.016 0.016 0.008 
vn 0 1 0 
vn 0 1 0 
vn 0 1 0 
vn 0 1 0 
f 87//87 88//88 89//89 
f 89//89 90//90 87//87 
o mesh18
v -0.016 0.016 0 
v -0.016 -0.016 0 
v -0.016 -0.016 0.008 
v -0.016 0.016 0.008 
vn -1 0 0 
vn -1 0 0 
vn -1 0 0 
vn -1 0 0 
f 91//91 92//92 93//93 
f 93//93 94//94 91//91 
o mesh19
v -0.016 -0.016 0 
v 0.016 -0.016 0 
v 0.016 -0.016 0.008 
v -0.016 -0.016 0.008 
vn 0 -1 0 
vn 0 -1 0 
vn 0 -1 0 
vn 0 -1 0 
f 95//95 96//96 97//97 
f 97//97 98//98 95//95 
o mesh20
v -0.016 0.016 0 
v 0.016 0.016 0 
v 0.016 -0.016 0 
v -0.016 -0.016 0 
vn 0 0 -1 
vn 0 0 -1 
vn 0 0 -1 
vn 0 0 -1 
f 99//99 100//100 101//101 
f 101//101 102//102 99//99 
usemtl 0.349020_0.376471_0.400000_0.000000_0.000000
o mesh21
v -0.016 0.016 0.008 
v -0.016 -0.016 0.008 
v -0.008 -0.008 0.016 
v -0.008 0.008 0.016 
vn -0.707107 0 0.707107 
vn -0.707107 0 0.707107 
vn -0.707107 0 0.707107 
vn -0.707107 0 0.707107 
f 103//103 104//104 105//105 
f 105//105 106//106 103//103 
