# File units = meters
mtllib Track.mtl
g Part 1
usemtl 0.600000_0.352941_0.054902_0.000000_0.000000
o mesh0
v 0.011 -0.004 0 
v 0.011 0.004 0 
v -0.011 0.004 0 
v -0.011 -0.004 0 
vn 0 0 1 
vn 0 0 1 
vn 0 0 1 
vn 0 0 1 
f 1//1 2//2 3//3 
f 3//3 4//4 1//1 
usemtl 0.701961_0.701961_0.701961_0.000000_0.000000
o mesh1
v 0.011 -0.008 0.002 
v 0.011 0.008 0.002 
v 0.011 0.004 0 
v 0.011 0.008 0 
v 0.011 -0.004 0 
v 0.011 -0.008 0 
vn -1 0 0 
vn -1 0 0 
vn -1 0 0 
vn -1 0 0 
vn -1 0 0 
vn -1 0 0 
f 5//5 6//6 7//7 
f 6//6 8//8 7//7 
f 7//7 9//9 5//5 
f 9//9 10//10 5//5 
o mesh2
v 0.011 -0.008 0.002 
v 0.013 -0.008 0.002 
v 0.013 0.008 0.002 
v 0.011 0.008 0.002 
vn 0 0 1 
vn 0 0 1 
vn 0 0 1 
vn 0 0 1 
f 11//11 12//12 13//13 
f 13//13 14//14 11//11 
o mesh3
v 0.011 -0.008 0 
v 0.011 -0.004 0 
v 0.013 -0.004 0 
v 0.013 -0.008 0 
vn 0 0 -1 
vn 0 0 -1 
vn 0 0 -1 
vn 0 0 -1 
f 15//15 16//16 17//17 
f 17//17 18//18 15//15 
o mesh4
v 0.011 -0.008 0.002 
v 0.011 -0.008 0 
v 0.013 -0.008 0 
v 0.013 -0.008 0.002 
vn 0 -1 0 
vn 0 -1 0 
vn 0 -1 0 
vn 0 -1 0 
f 19//19 20//20 21//21 
f 21//21 22//22 19//19 
o mesh5
v 0.013 0.008 0 
v 0.013 0.004 0 
v 0.011 0.004 0 
v 0.011 0.008 0 
vn 0 0 -1 
vn 0 0 -1 
vn 0 0 -1 
vn 0 0 -1 
f 23//23 24//24 25//25 
f 25//25 26//26 23//23 
o mesh6
v 0.013 0.008 0.002 
v 0.013 0.008 0 
v 0.011 0.008 0 
v 0.011 0.008 0.002 
vn 0 1 0 
vn 0 1 0 
vn 0 1 0 
vn 0 1 0 
f 27//27 28//28 29//29 
f 29//29 30//30 27//27 
o mesh7
v 0.013 0.008 0.002 
v 0.013 -0.008 0.002 
v 0.013 -0.004 0 
v 0.013 -0.008 0 
v 0.013 0.004 0 
v 0.013 0.008 0 
vn 1 0 0 
vn 1 0 0 
vn 1 0 0 
vn 1 0 0 
vn 1 0 0 
vn 1 0 0 
f 31//31 32//32 33//33 
f 32//32 34//34 33//33 
f 33//33 35//35 31//31 
f 35//35 36//36 31//31 
usemtl 0.600000_0.352941_0.054902_0.000000_0.000000
o mesh8
v 0.016 -0.004 0 
v 0.016 0.004 0 
v 0.013 0.004 0 
v 0.013 -0.004 0 
vn 0 0 1 
vn 0 0 1 
vn 0 0 1 
vn 0 0 1 
f 37//37 38//38 39//39 
f 39//39 40//40 37//37 
o mesh9
v 0.016 0.004 -0.002 
v 0.016 0.004 0 
v 0.016 -0.004 0 
v 0.016 -0.004 -0.002 
vn 1 0 0 
vn 1 0 0 
vn 1 0 0 
vn 1 0 0 
f 41//41 42//42 43//43 
f 43//43 44//44 41//41 
o mesh10
v 0.016 0.004 -0.002 
v 0.016 -0.004 -0.002 
v -0.016 -0.004 -0.002 
v -0.016 0.004 -0.002 
vn 0 0 -1 
vn 0 0 -1 
vn 0 0 -1 
vn 0 0 -1 
f 45//45 46//46 47//47 
f 47//47 48//48 45//45 
o mesh11
v -0.016 -0.004 -0.002 
v -0.016 -0.004 0 
v -0.016 0.004 0 
v -0.016 0.004 -0.002 
vn -1 0 0 
vn -1 0 0 
vn -1 0 0 
vn -1 0 0 
f 49//49 50//50 51//51 
f 51//51 52//52 49//49 
o mesh12
v 0.016 0.004 -0.002 
v -0.016 0.004 -0.002 
v -0.011 0.004 0 
v -0.013 0.004 0 
v 0.011 0.004 0 
v 0.013 0.004 0 
v -0.016 0.004 0 
v 0.016 0.004 0 
vn 0 1 0 
vn 0 1 0 
vn 0 1 0 
vn 0 1 0 
vn 0 1 0 
vn 0 1 0 
vn 0 1 0 
vn 0 1 0 
f 53//53 54//54 55//55 
f 54//54 56//56 55//55 
f 53//53 57//57 58//58 
f 54//54 59//59 56//56 
f 55//55 57//57 53//53 
f 58//58 60//60 53//53 
o mesh13
v -0.016 -0.004 -0.002 
v -0.011 -0.004 0 
v -0.013 -0.004 0 
v 0.016 -0.004 -0.002 
v 0.011 -0.004 0 
v 0.013 -0.004 0 
v 0.016 -0.004 0 
v -0.016 -0.004 0 
vn 0 -1 0 
vn 0 -1 0 
vn 0 -1 0 
vn 0 -1 0 
vn 0 -1 0 
vn 0 -1 0 
vn 0 -1 0 
vn 0 -1 0 
f 61//61 62//62 63//63 
f 61//61 64//64 65//65 
f 65//65 62//62 61//61 
f 64//64 66//66 65//65 
f 64//64 67//67 66//66 
f 63//63 68//68 61//61 
o mesh14
v -0.016 -0.004 0 
v -0.013 -0.004 0 
v -0.013 0.004 0 
v -0.016 0.004 0 
vn 0 0 1 
vn 0 0 1 
vn 0 0 1 
vn 0 0 1 
f 69//69 70//70 71//71 
f 71//71 72//72 69//69 
usemtl 0.701961_0.701961_0.701961_0.000000_0.000000
o mesh15
v -0.013 -0.008 0 
v -0.013 -0.004 0 
v -0.011 -0.004 0 
v -0.011 -0.008 0 
vn 0 0 -1 
vn 0 0 -1 
vn 0 0 -1 
vn 0 0 -1 
f 73//73 74//74 75//75 
f 75//75 76//76 73//73 
o mesh16
v -0.011 -0.008 0.002 
v -0.013 -0.008 0.002 
v -0.013 -0.008 0 
v -0.011 -0.008 0 
vn 0 -1 0 
vn 0 -1 0 
vn 0 -1 0 
vn 0 -1 0 
f 77//77 78//78 79//79 
f 79//79 80//80 77//77 
o mesh17
v -0.011 0.008 0.002 
v -0.011 -0.008 0.002 
v -0.011 -0.004 0 
v -0.011 -0.008 0 
v -0.011 0.004 0 
v -0.011 0.008 0 
vn 1 0 0 
vn 1 0 0 
vn 1 0 0 
vn 1 0 0 
vn 1 0 0 
vn 1 0 0 
f 81//81 82//82 83//83 
f 82//82 84//84 83//83 
f 83//83 85//85 81//81 
f 85//85 86//86 81//81 
o mesh18
v -0.013 -0.008 0.002 
v -0.013 0.008 0.002 
v -0.013 0.004 0 
v -0.013 0.008 0 
v -0.013 -0.004 0 
v -0.013 -0.008 0 
vn -1 0 0 
vn -1 0 0 
vn -1 0 0 
vn -1 0 0 
vn -1 0 0 
vn -1 0 0 
f 87//87 88//88 89//89 
f 88//88 90//90 89//89 
f 89//89 91//91 87//87 
f 91//91 92//92 87//87 
o mesh19
v -0.013 -0.008 0.002 
v -0.011 -0.008 0.002 
v -0.011 0.008 0.002 
v -0.013 0.008 0.002 
vn 0 0 1 
vn 0 0 1 
vn 0 0 1 
vn 0 0 1 
f 93//93 94//94 95//95 
f 95//95 96//96 93//93 
o mesh20
v -0.011 0.008 0 
v -0.011 0.004 0 
v -0.013 0.004 0 
v -0.013 0.008 0 
vn 0 0 -1 
vn 0 0 -1 
vn 0 0 -1 
vn 0 0 -1 
f 97//97 98//98 99//99 
f 99//99 100//100 97//97 
o mesh21
v -0.011 0.008 0.002 
v -0.011 0.008 0 
v -0.013 0.008 0 
v -0.013 0.008 0.002 
vn 0 1 0 
vn 0 1 0 
vn 0 1 0 
vn 0 1 0 
f 101//101 102//102 103//103 
f 103//103 104//104 101//101 
